<?xml version="1.0" encoding="UTF-8" standalone="no"?>
<svg
   xmlns:dc="http://purl.org/dc/elements/1.1/"
   xmlns:cc="http://creativecommons.org/ns#"
   xmlns:rdf="http://www.w3.org/1999/02/22-rdf-syntax-ns#"
   xmlns:svg="http://www.w3.org/2000/svg"
   xmlns="http://www.w3.org/2000/svg"
   xmlns:sodipodi="http://sodipodi.sourceforge.net/DTD/sodipodi-0.dtd"
   xmlns:inkscape="http://www.inkscape.org/namespaces/inkscape"
   version="1.0"
   width="1104.6677pt"
   height="1104.6678pt"
   viewBox="0 0 1104.6677 1104.6678"
   preserveAspectRatio="xMidYMid meet"
   id="svg10"
   sodipodi:docname="icon.svg"
   inkscape:version="0.92.3 (2405546, 2018-03-11)">
  <metadata
     id="metadata16">
    <rdf:RDF>
      <cc:Work
         rdf:about="">
        <dc:format>image/svg+xml</dc:format>
        <dc:type
           rdf:resource="http://purl.org/dc/dcmitype/StillImage" />
        <dc:title></dc:title>
      </cc:Work>
    </rdf:RDF>
  </metadata>
  <defs
     id="defs14" />
  <sodipodi:namedview
     pagecolor="#ffffff"
     bordercolor="#666666"
     borderopacity="1"
     objecttolerance="10"
     gridtolerance="10"
     guidetolerance="10"
     inkscape:pageopacity="0"
     inkscape:pageshadow="2"
     inkscape:window-width="1882"
     inkscape:window-height="1124"
     id="namedview12"
     showgrid="false"
     fit-margin-top="0"
     fit-margin-left="0"
     fit-margin-right="0"
     fit-margin-bottom="0"
     inkscape:zoom="0.39140719"
     inkscape:cx="514.02146"
     inkscape:cy="362.426"
     inkscape:window-x="88"
     inkscape:window-y="28"
     inkscape:window-maximized="0"
     inkscape:current-layer="svg10" />
  <rect
     style="opacity:1;fill:#deaa87;fill-opacity:1;stroke:none;stroke-width:5.625;stroke-linecap:round;stroke-linejoin:round;stroke-miterlimit:4;stroke-dasharray:none;stroke-dashoffset:0;stroke-opacity:1"
     id="rect840"
     width="1104.6677"
     height="1104.6678"
     x="0"
     y="-2.2737368e-13" />
  <g
     id="g844"
     transform="translate(346.48639,537.51729)">
    <path
       d="m 374.19576,154.73364 c -21.65926,-1.72239 -44.70198,3.37988 -64.62144,14.02248 -17.342,9.26903 -30.1242,19.35543 -46.12768,36.21777 l -9.6852,10.25558 -3.02746,-1.56027 c -3.07838,-1.69222 -3.11889,-1.6008 -10.69634,4.88551 -13.43039,11.54923 -30.12747,16.40078 -46.64003,13.67765 -7.12905,-1.19021 -17.57134,-5.27049 -23.52553,-9.11205 -3.79007,-2.55448 -4.01344,-2.54408 -6.02154,-0.4807 -1.53126,1.72779 -4.0994,2.33984 -11.29799,2.54074 -38.74393,1.53549 -59.919734,-12.87927 -90.901564,-61.93695 -3.142965,-5.00218 -6.01056,-8.89793 -6.365864,-8.83662 -1.22796,0.54965 -2.170728,11.06969 -1.825311,20.41049 0.442299,14.30575 3.06515,26.40578 8.665641,40.91903 8.390336,21.54651 22.901855,41.86783 42.446758,59.71627 l 8.64933,7.87966 -1.08235,3.67676 c -0.57648,2.04148 -0.5639,4.23462 -0.035,5.01585 0.56936,0.6898 3.17198,3.7025 5.77461,6.71519 9.98349,11.53343 15.01571,26.34177 13.81343,40.90317 -0.56172,6.20439 -1.42179,8.88586 -6.32381,19.94842 l -5.67176,12.79966 2.03327,2.32289 c 2.36886,2.79973 3.236,15.65306 1.98993,27.35123 -0.81519,6.52959 -1.7864,9.7087 -6.20227,19.67414 -4.95293,10.93062 -5.8245,12.40384 -12.22381,19.19345 -8.609978,9.31012 -22.375964,20.3825 -39.837323,31.89558 -7.558833,4.96327 -13.483489,9.44751 -13.330748,9.84333 1.171012,3.03459 29.316064,2.70895 42.512113,-0.41264 11.510958,-2.7745 30.387498,-10.81666 40.736748,-17.38727 11.91172,-7.6283 26.46825,-19.99105 37.07592,-31.58791 l 8.73152,-9.5844 3.47419,1.53948 c 3.38276,1.49897 3.73807,1.43765 6.94292,-1.84547 9.32059,-9.43275 24.71581,-16.28309 37.49851,-16.74401 12.24455,-0.48063 19.39441,1.15631 30.76245,6.84996 l 9.58003,4.79197 2.28238,-1.94184 c 2.62728,-2.22652 15.03388,-3.07286 27.27021,-1.80708 11.4239,1.12453 24.78142,6.27784 33.77456,12.88794 12.46843,9.13445 23.35687,21.83453 38.53136,44.85593 4.52585,6.81811 8.53216,12.09348 8.95809,11.62595 1.0243,-1.07741 2.04373,-15.71984 1.66929,-23.76097 -1.62037,-32.87513 -19.78232,-67.17373 -50.42644,-95.51871 l -9.72674,-8.90396 1.42725,-3.96144 c 0.87048,-2.4581 0.97012,-4.16399 0.23871,-4.4881 -3.38276,-1.49896 -11.92533,-13.8158 -15.36665,-22.3409 -6.95326,-16.64398 -6.18731,-30.96122 2.71832,-48.34367 l 5.04545,-9.90523 -2.1548,-2.04861 c -1.68728,-1.62269 -2.25882,-4.28226 -2.45971,-11.48085 -0.56384,-14.03146 0.6959,-22.55162 4.89772,-33.26818 3.07786,-7.93327 4.56751,-10.55452 9.98194,-17.34304 8.12165,-10.18277 22.55663,-22.27124 41.84433,-34.94384 8.07619,-5.39029 14.8839,-10.1395 15.08647,-10.59663 0.56717,-1.27997 -1.29146,-1.77543 -8.83604,-2.27474 z M 244.44169,298.71146 c 8.71284,10.20474 10.37051,21.7677 4.82029,34.29308 -5.5097,12.43395 -16.61939,19.98013 -30.42749,20.53357 -9.56417,0.35581 -16.66421,-2.13407 -23.94106,-8.42116 -12.35838,-10.61698 -15.85331,-30.86928 -7.38895,-43.3065 8.42385,-12.3458 22.83528,-18.21017 37.47989,-15.22097 7.72852,1.56522 13.48946,5.1024 19.45732,12.12198 z"
       id="path2"
       inkscape:connector-curvature="0"
       style="fill:#000000;stroke:none;stroke-width:0.1" />
    <path
       inkscape:connector-curvature="0"
       id="path836"
       d="m 248.82436,-441.07088 q 7.29986,-2.08567 14.59972,-4.17135 7.29985,-2.08567 25.02807,-1.04283 18.77106,0 29.19943,10.42836 11.4712,10.42837 25.02807,14.59971 13.55688,4.17135 17.72823,14.59972 5.21418,9.38552 8.34269,13.55687 3.12851,3.12851 7.29985,6.25702 8.3427,9.38553 11.47121,22.9424 3.12851,13.55688 6.25701,19.8139 3.12851,6.25702 5.21419,11.4712 5.21418,13.55688 4.17134,27.11375 -1.04283,12.51404 2.08568,20.85673 3.12851,7.29986 0,21.89957 -2.08568,13.55687 0,27.11375 2.08567,13.55687 -6.25702,30.24226 -8.34269,15.64255 -19.8139,31.2851 -10.42836,14.59971 -12.51404,35.45644 -4.17134,35.45644 -37.54211,50.05615 -16.68539,8.34269 -25.02808,21.89957 -8.34269,12.51404 -13.55687,30.24226 -5.21419,16.685384 -8.3427,35.45644186 -3.12851,17.72822214 -6.25702,36.49927914 -5.21418,42.756299 -4.17134,55.270337 2.08567,12.514042 -1.04284,25.028082 -3.12851,12.51403 -9.38553,23.98524 -15.64254,28.15658 -31.28509,26.07091 -13.55688,0 -22.94241,2.08567 -14.59971,3.12851 -22.9424,-3.12851 -17.72822,-13.55687 -22.94241,-23.98524 -10.42836,-20.85673 -6.25701,-46.927642 5.21418,-27.11375 2.08567,-43.799135 -2.08567,-17.728221 -6.25702,-34.413606 -18.77106,-60.484517 9.38553,-104.283657 8.34269,-12.51404 16.68538,-15.64255 8.3427,-5.21418 13.55688,-14.59971 5.21418,-9.38553 12.51404,-9.38553 8.34269,0 19.81389,-10.42836 12.51404,-10.42837 23.98524,-27.11375 28.15659,-41.71346 17.72822,-67.78438 -9.38553,-22.9424 -26.07091,-17.72822 -6.25702,1.04284 -11.4712,2.08567 -5.21419,0 -8.3427,-9.38552 -8.34269,-18.77106 -30.24226,-19.8139 -22.9424,-2.08567 -34.4136,23.98524 -6.25702,13.55688 -9.38553,21.89957 -3.12851,8.34269 -6.25702,14.59971 -5.21418,9.38553 -19.81389,11.4712 -13.55688,2.08568 -19.813899,1.04284 -6.25702,-2.08567 -10.42836,-4.17135 -3.12851,-2.08567 -6.25702,-4.17134 -2.08568,-2.08568 -7.29986,-2.08568 -4.17134,0 -12.51404,-3.12851 -8.34269,-4.17134 -16.68538,-12.51403 -20.85673,-20.85674 -27.11375,-50.05616 -6.25702,-29.19942 -11.4712001,-40.67062 -5.21419,-12.51404 3.1285101,-21.89957 8.34269,-9.38553 15.64254,-19.8139 17.72822,-30.24226 25.02808,-33.37077 7.29986,-3.12851 12.51404,-5.21418 13.55687,-5.21418 21.89957,-17.72822 8.34269,-12.51404 12.51404,-16.68538 5.214179,-5.21419 10.428359,-7.29986 5.21418,-2.08567 11.4712,-2.08567 6.25702,0 14.59971,0 9.38553,-1.04284 14.59972,-3.12851 5.21418,-2.08568 9.38553,-4.17135 10.42836,-3.12851 20.85673,0 11.4712,3.12851 14.59971,6.25702 3.12851,2.08567 5.21418,4.17135 6.25702,6.25702 19.81389,7.29985 10.42837,1.04284 16.68539,-1.04283 7.29986,-2.08568 13.55687,-4.17135 z"
       style="font-style:normal;font-variant:normal;font-weight:normal;font-stretch:normal;font-size:1067.86462402px;line-height:100%;font-family:'Creepster Caps';-inkscape-font-specification:'Creepster Caps';font-variant-ligatures:normal;font-variant-caps:normal;font-variant-numeric:normal;text-align:start;letter-spacing:3.52395344px;word-spacing:0px;writing-mode:lr-tb;text-anchor:start;fill:#000000;fill-opacity:1;stroke:none;stroke-width:5.33932304px;stroke-linecap:butt;stroke-linejoin:miter;stroke-opacity:1" />
  </g>
</svg>
